# xmcd
#
# Track frame offsets:
#	150
#	14863
#	32914
#	45507
#	62497
#	77066
#	90682
#	110002
#	125548
#	142661
#	157089
#
# Disc length: 2315 seconds
#
# Revision: 1
# Processed by: cddbd v1.5.2PL0 Copyright (c) Steve Scherf et al.
# Submitted via: audiograbber 1.83.01
#
DISCID=9009090b
DTITLE=Karen Lee Batten - Every Moment...
DYEAR=2005
DGENRE=Country
TTITLE0=One Day
TTITLE1=Hearts On The Run
TTITLE2=Nothin' But Love
TTITLE3=Defenseless
TTITLE4=What Is Me
TTITLE5=You Rockin' Me
TTITLE6=Every Moment Of My Life
TTITLE7=Like I Would For You
TTITLE8=Paperback Dream
TTITLE9=I Might Have Dreamt It
TTITLE10=A Bitter End
EXTD=
EXTT0=
EXTT1=
EXTT2=
EXTT3=
EXTT4=
EXTT5=
EXTT6=
EXTT7=
EXTT8=
EXTT9=
EXTT10=
PLAYORDER=
